<?xml version="1.0" standalone="no"?>
<svg xmlns:xlink="http://www.w3.org/1999/xlink" id="wave" style="transform:rotate(180deg); transition: 0.3s" viewBox="0 0 1440 490" version="1.1" xmlns="http://www.w3.org/2000/svg"><defs><linearGradient id="sw-gradient-0" x1="0" x2="0" y1="1" y2="0"><stop stop-color="rgba(62, 71.914, 243, 1)" offset="0%"/><stop stop-color="rgba(11, 214.494, 255, 1)" offset="100%"/></linearGradient></defs><path style="transform:translate(0, 0px); opacity:1" fill="url(#sw-gradient-0)" d="M0,245L48,269.5C96,294,192,343,288,343C384,343,480,294,576,277.7C672,261,768,278,864,245C960,212,1056,131,1152,89.8C1248,49,1344,49,1440,40.8C1536,33,1632,16,1728,24.5C1824,33,1920,65,2016,81.7C2112,98,2208,98,2304,147C2400,196,2496,294,2592,294C2688,294,2784,196,2880,171.5C2976,147,3072,196,3168,204.2C3264,212,3360,180,3456,179.7C3552,180,3648,212,3744,261.3C3840,310,3936,376,4032,375.7C4128,376,4224,310,4320,277.7C4416,245,4512,245,4608,220.5C4704,196,4800,147,4896,130.7C4992,114,5088,131,5184,187.8C5280,245,5376,343,5472,326.7C5568,310,5664,180,5760,130.7C5856,82,5952,114,6048,130.7C6144,147,6240,147,6336,171.5C6432,196,6528,245,6624,269.5C6720,294,6816,294,6864,294L6912,294L6912,490L6864,490C6816,490,6720,490,6624,490C6528,490,6432,490,6336,490C6240,490,6144,490,6048,490C5952,490,5856,490,5760,490C5664,490,5568,490,5472,490C5376,490,5280,490,5184,490C5088,490,4992,490,4896,490C4800,490,4704,490,4608,490C4512,490,4416,490,4320,490C4224,490,4128,490,4032,490C3936,490,3840,490,3744,490C3648,490,3552,490,3456,490C3360,490,3264,490,3168,490C3072,490,2976,490,2880,490C2784,490,2688,490,2592,490C2496,490,2400,490,2304,490C2208,490,2112,490,2016,490C1920,490,1824,490,1728,490C1632,490,1536,490,1440,490C1344,490,1248,490,1152,490C1056,490,960,490,864,490C768,490,672,490,576,490C480,490,384,490,288,490C192,490,96,490,48,490L0,490Z"/><defs><linearGradient id="sw-gradient-1" x1="0" x2="0" y1="1" y2="0"><stop stop-color="rgba(62, 84.178, 243, 1)" offset="0%"/><stop stop-color="rgba(63.767, 11, 255, 1)" offset="100%"/></linearGradient></defs><path style="transform:translate(0, 50px); opacity:0.9" fill="url(#sw-gradient-1)" d="M0,392L48,392C96,392,192,392,288,343C384,294,480,196,576,171.5C672,147,768,196,864,196C960,196,1056,147,1152,171.5C1248,196,1344,294,1440,277.7C1536,261,1632,131,1728,130.7C1824,131,1920,261,2016,310.3C2112,359,2208,327,2304,285.8C2400,245,2496,196,2592,179.7C2688,163,2784,180,2880,163.3C2976,147,3072,98,3168,122.5C3264,147,3360,245,3456,277.7C3552,310,3648,278,3744,285.8C3840,294,3936,343,4032,318.5C4128,294,4224,196,4320,171.5C4416,147,4512,196,4608,212.3C4704,229,4800,212,4896,196C4992,180,5088,163,5184,187.8C5280,212,5376,278,5472,294C5568,310,5664,278,5760,245C5856,212,5952,180,6048,138.8C6144,98,6240,49,6336,81.7C6432,114,6528,229,6624,285.8C6720,343,6816,343,6864,343L6912,343L6912,490L6864,490C6816,490,6720,490,6624,490C6528,490,6432,490,6336,490C6240,490,6144,490,6048,490C5952,490,5856,490,5760,490C5664,490,5568,490,5472,490C5376,490,5280,490,5184,490C5088,490,4992,490,4896,490C4800,490,4704,490,4608,490C4512,490,4416,490,4320,490C4224,490,4128,490,4032,490C3936,490,3840,490,3744,490C3648,490,3552,490,3456,490C3360,490,3264,490,3168,490C3072,490,2976,490,2880,490C2784,490,2688,490,2592,490C2496,490,2400,490,2304,490C2208,490,2112,490,2016,490C1920,490,1824,490,1728,490C1632,490,1536,490,1440,490C1344,490,1248,490,1152,490C1056,490,960,490,864,490C768,490,672,490,576,490C480,490,384,490,288,490C192,490,96,490,48,490L0,490Z"/></svg>